# xmcd
#
# Track frame offsets: 
#        150
#        19200
#        35253
#        50011
#        67217
#        83532
#        104266
#        119936
#        139810
#        155694
#        170359
#        189233
#        203122
#        221168
#        235205
#        252163
#        270371
#        288460
#        306831
#        323769
#
# Disc length: 4472 seconds
#
# Revision: 2
# Processed by: cddbd v1.5.2PL0 Copyright (c) Steve Scherf et al.
# Submitted via: ExactAudioCopy v0.99pb5
#
DISCID=29117614
DTITLE=Various Artist - Hott Country 058
DYEAR=2000
DGENRE=Country
TTITLE0=Faith Hill - There Will Come A Day
TTITLE1=Montgomery Gentry - All Night Long
TTITLE2=Alabama - When It All Goes South
TTITLE3=Lonestar - Tell Her
TTITLE4=Don Henley - For My Wedding
TTITLE5=Anita Cochran - You With Me
TTITLE6=Chris Cummings - A Little At A Time
TTITLE7=Eic Heatherly - Swimming In Champagne
TTITLE8=Tara Lynn Hart - What He Used to Do
TTITLE9=Andy Griggs - You Made Me That Way
TTITLE10=Billy Ray Cyrus - We The People
TTITLE11=Rascal Flatts - This Everday Love
TTITLE12=Jolie And the Wanted - I Would
TTITLE13=Shirley Myers - Real True Love
TTITLE14=Shenandoah - What Children Believe
TTITLE15=Lee Ann Womack - Ashes By Now
TTITLE16=SHeDAISY - Lucky 4 You ( Tonight I'm Just Me )
TTITLE17=Billy Gilman - Oklahoma
TTITLE18=Cledus T. Judd - My Cellmate Thinks I'm Sexy
TTITLE19=Tracy Byrd - Merry Christmas From Texas Y'all
EXTD=
EXTT0=
EXTT1=
EXTT2=
EXTT3=
EXTT4=
EXTT5=
EXTT6=
EXTT7=
EXTT8=
EXTT9=
EXTT10=
EXTT11=
EXTT12=
EXTT13=
EXTT14=
EXTT15=
EXTT16=
EXTT17=
EXTT18=
EXTT19=
PLAYORDER=
